<?xml version="1.0" encoding="UTF-8" standalone="no"?>
<!-- Created with Inkscape (http://www.inkscape.org/) -->

<svg
   xmlns:dc="http://purl.org/dc/elements/1.1/"
   xmlns:cc="http://creativecommons.org/ns#"
   xmlns:rdf="http://www.w3.org/1999/02/22-rdf-syntax-ns#"
   xmlns:svg="http://www.w3.org/2000/svg"
   xmlns="http://www.w3.org/2000/svg"
   xmlns:sodipodi="http://sodipodi.sourceforge.net/DTD/sodipodi-0.dtd"
   xmlns:inkscape="http://www.inkscape.org/namespaces/inkscape"
   version="1.1"
   id="svg8028"
   width="876"
   height="550"
   viewBox="0 0 876 550"
   sodipodi:docname="celery-node-logo.svg"
   inkscape:version="0.92.4 (0.92.4+202003022015+8da6682)"
   inkscape:export-filename="/home/actumn/다운로드/celery.node/celery-node-long.png"
   inkscape:export-xdpi="114.97728"
   inkscape:export-ydpi="114.97728">
  <metadata
     id="metadata8034">
    <rdf:RDF>
      <cc:Work
         rdf:about="">
        <dc:format>image/svg+xml</dc:format>
        <dc:type
           rdf:resource="http://purl.org/dc/dcmitype/StillImage" />
        <dc:title />
      </cc:Work>
    </rdf:RDF>
  </metadata>
  <defs
     id="defs8032" />
  <sodipodi:namedview
     pagecolor="#ffffff"
     bordercolor="#666666"
     borderopacity="1"
     objecttolerance="10"
     gridtolerance="10"
     guidetolerance="10"
     inkscape:pageopacity="0"
     inkscape:pageshadow="2"
     inkscape:window-width="1920"
     inkscape:window-height="960"
     id="namedview8030"
     showgrid="false"
     inkscape:zoom="0.7808219"
     inkscape:cx="470.51757"
     inkscape:cy="310.5204"
     inkscape:window-x="0"
     inkscape:window-y="27"
     inkscape:window-maximized="1"
     inkscape:current-layer="svg8028" />
  <g
     id="g8038"
     transform="matrix(0.46482328,-0.26330223,0.26330223,0.46482328,172.78924,269.63319)"
     inkscape:export-xdpi="329.62912"
     inkscape:export-ydpi="329.62912">
    <path
       style="fill:#acc75e"
       d="m 427.5,368.58075 c -3.12918,-2.09869 -16.3605,-9.89541 -20.01894,-11.79641 -1.81596,-0.94361 -17.4046,-9.89378 -34.64141,-19.88926 C 355.60284,326.89959 338.35,316.97365 334.5,314.83743 c -11.59429,-6.43323 -10.51591,0.69458 -10.24037,-67.68632 0.13221,-32.80811 0.5877,-60.18654 1.01221,-60.84096 0.58912,-0.90816 1.566,-0.85803 4.1264,0.21178 4.86177,2.03137 34.97206,19.58556 35.81403,20.87945 0.39175,0.60201 0.72362,18.16735 0.7375,39.03409 0.0166,24.92879 0.3825,38.30389 1.06706,39.00202 1.23104,1.25545 14.812,9.37599 27.48317,16.43316 4.95,2.75689 15.525,8.80916 23.5,13.44949 l 14.5,8.43696 v 22.85791 c 0,24.53016 -0.15581,25.21466 -5,21.96574 z m -1,-69.69347 c -15.82114,-9.32609 -15.25475,-8.99919 -28.5,-16.44947 -6.325,-3.55773 -12.06339,-7.2239 -12.75198,-8.14705 -1.72333,-2.31035 -1.64669,-60.39698 0.0827,-62.65796 0.97533,-1.27515 49.71932,-29.90365 53.33118,-31.32267 0.63903,-0.25106 6.93903,2.89195 14,6.98447 7.06097,4.09252 16.21313,9.37872 20.33813,11.74711 4.125,2.3684 10.65,6.14512 14.5,8.39271 l 7,4.08653 0.26401,31.07186 c 0.24328,28.63225 0.12551,31.19278 -1.5,32.612 -0.9702,0.84708 -11.88901,7.38051 -24.26401,14.51874 -24.162,13.93728 -28.4554,16.28733 -29.70034,16.25691 C 438.85985,305.96972 433.1,302.77779 426.5,298.88728 Z M 357.17542,188.72414 c -6.77852,-3.97328 -13.52852,-7.85898 -15,-8.63491 C 336.84059,177.27615 332,173.95589 332,173.10972 c 0,-0.47586 5.7375,-4.16401 12.75,-8.19591 7.0125,-4.03189 30.9219,-17.81191 53.132,-30.62226 C 420.09209,121.4812 438.71696,111 439.27058,111 c 0.90239,0 20.20419,10.8546 33.22942,18.68697 2.75,1.65363 15.125,8.75779 27.5,15.78702 33.88909,19.24962 46,26.59362 46,27.89417 C 546,174.91211 509.79172,196 507.14073,196 c -1.12286,0 -4.65138,-1.60845 -7.84115,-3.57433 -20.22323,-12.46375 -58.81249,-33.56077 -60.72011,-33.19611 -1.18176,0.22591 -16.34021,8.59167 -33.68544,18.59059 -17.34523,9.99892 -32.40467,18.16821 -33.46541,18.15399 -1.06074,-0.0142 -7.47468,-3.27672 -14.2532,-7.25 z"
       id="path8048"
       inkscape:connector-curvature="0"
       sodipodi:nodetypes="ssssscccscsscsssscccscscscscsscscsscsssscscs" />
    <path
       style="fill:#c7e410"
       d="m 422.0095,363.43416 c -4.11978,-2.40745 -7.63085,-4.7982 -7.80238,-5.31279 C 413.95648,357.36945 428.50019,351 430.46774,351 c 0.29274,0 0.53226,3.825 0.53226,8.5 0,4.675 -0.3375,8.45755 -0.75,8.40567 -0.4125,-0.0519 -4.12073,-2.06406 -8.2405,-4.47151 z m -46.23001,-26.70845 c -17.44628,-10.02414 -31.73378,-18.68209 -31.75,-19.23988 -0.0162,-0.5578 9.72439,-4.73218 21.6458,-9.27641 l 21.67529,-8.26224 10.57471,5.93991 c 5.81609,3.26695 15.52471,8.8217 21.57471,12.34389 l 11,6.40398 0.28136,11.03405 c 0.20597,8.07717 -0.062,11.29206 -1,11.99689 -2.21397,1.66363 -17.80575,7.33525 -20.09531,7.30981 -1.20233,-0.0134 -16.46028,-8.22587 -33.90656,-18.25 z M 332.5,311.63881 l -6,-3.33734 -0.24419,-25.40074 c -0.1343,-13.9704 0.0907,-25.88524 0.5,-26.47743 C 327.45819,255.4071 361.2341,242 363.0918,242 c 0.47846,0 0.99105,9.99986 1.13907,22.22191 l 0.26913,22.22192 8.98755,5.24074 c 4.94315,2.8824 9.1155,5.62457 9.27187,6.0937 0.24422,0.73264 -41.51622,17.24274 -43.53025,17.20981 -0.40105,-0.007 -3.42917,-1.51373 -6.72917,-3.34927 z m 95.65272,-13.63309 c -6.241,-3.74015 -11.77443,-7.22743 -12.2965,-7.7495 -0.59897,-0.59897 3.38599,-2.61351 10.79956,-5.45956 6.46183,-2.48069 11.92025,-5.02476 12.12983,-5.6535 0.63839,-1.91517 -1.80343,-1.3302 -14.01251,3.35684 -6.44703,2.475 -12.56534,4.5 -13.59625,4.5 -1.75349,0 -20.20952,-10.12237 -23.62632,-12.95806 -1.30286,-1.08128 -1.54808,-4.34216 -1.53522,-20.41438 0.008,-10.52016 0.34592,-19.62896 0.75,-20.24179 0.40408,-0.61283 5.34719,-2.81946 10.98469,-4.90362 5.6375,-2.08417 10.25,-4.17026 10.25,-4.63577 0,-1.64031 -4.58025,-0.80682 -11.85361,2.15705 C 392.1019,227.65154 388.1644,229 387.39639,229 386.3267,229 386,227.26445 386,221.58179 c 0,-4.08002 0.26781,-8.11612 0.59513,-8.96911 0.61913,-1.61342 50.7311,-30.94601 52.86834,-30.94601 0.96818,0 20.83727,11.08192 27.53653,15.35841 0.825,0.52664 6.45,3.71285 12.5,7.08048 6.05,3.36762 11.7875,6.81628 12.75,7.66368 1.59434,1.40369 1.75,4.23875 1.75,31.8732 v 30.33247 l -3.75,2.36017 c -7.15982,4.50624 -49.57984,28.66438 -50.16329,28.56792 -0.32269,-0.0534 -5.69298,-3.15713 -11.93399,-6.89728 z M 326,220.46862 c 0,-26.96749 0.215,-31.61389 1.48538,-32.10138 0.85034,-0.32631 8.86654,3.70297 18.75,9.42454 L 363.5,207.78631 v 15.34338 15.34338 l -17,6.68034 c -9.35,3.67418 -17.7875,6.71774 -18.75,6.76346 -1.63142,0.0775 -1.75,-2.05336 -1.75,-31.44825 z m 32.7787,-31.88347 c -5.89672,-3.46094 -11.36388,-6.82591 -12.14925,-7.47772 -0.78537,-0.6518 -3.81587,-2.40512 -6.73444,-3.89626 -2.91856,-1.49114 -5.44414,-3.17688 -5.61238,-3.74608 C 334.02275,172.58589 437.65969,112 439.42351,112 c 0.34061,0 5.89716,3.09655 12.34789,6.88123 20.40659,11.97264 22.09906,12.95082 53.88207,31.14147 39.49729,22.60583 40.20302,23.05075 38.32327,24.16048 -0.8122,0.47951 -8.67674,5.14838 -17.47674,10.37529 -8.8,5.22691 -17.007,9.76194 -18.23779,10.07784 -1.54164,0.3957 -3.87478,-0.49654 -7.5,-2.86814 -2.89421,-1.89338 -6.03579,-3.72132 -6.98127,-4.06208 -0.94548,-0.34077 -12.42048,-6.80004 -25.5,-14.35395 -13.07952,-7.55391 -25.00474,-14.3495 -26.50049,-15.10131 -2.62684,-1.32033 -3.84684,-0.71718 -35.78392,17.69112 -18.1854,10.48193 -33.8366,19.03055 -34.78045,18.99694 -0.94384,-0.0336 -6.54067,-2.8928 -12.43738,-6.35374 z"
       id="path8046"
       inkscape:connector-curvature="0"
       sodipodi:nodetypes="csssccscscssccccsscscsscsccssscsssccscscsscssccscscsscscccscsscccssscscscssscs" />
    <path
       style="fill:#96bd2c"
       d="m 422.0095,363.43416 c -4.11978,-2.40745 -7.63085,-4.7982 -7.80238,-5.31279 C 413.95648,357.36945 428.50019,351 430.46774,351 c 0.29274,0 0.53226,3.825 0.53226,8.5 0,4.675 -0.3375,8.45755 -0.75,8.40567 -0.4125,-0.0519 -4.12073,-2.06406 -8.2405,-4.47151 z m -46.23001,-26.70845 c -17.44628,-10.02414 -31.73378,-18.68209 -31.75,-19.23988 -0.0162,-0.5578 9.72439,-4.73218 21.6458,-9.27641 l 21.67529,-8.26224 10.57471,5.93991 c 5.81609,3.26695 15.52471,8.8217 21.57471,12.34389 l 11,6.40398 0.28136,11.03405 c 0.20597,8.07717 -0.062,11.29206 -1,11.99689 -2.21397,1.66363 -17.80575,7.33525 -20.09531,7.30981 -1.20233,-0.0134 -16.46028,-8.22587 -33.90656,-18.25 z M 332.5,311.63881 l -6,-3.33734 -0.24419,-25.40074 c -0.1343,-13.9704 0.0907,-25.88524 0.5,-26.47743 C 327.45819,255.4071 361.2341,242 363.0918,242 c 0.47846,0 0.99105,9.99986 1.13907,22.22191 l 0.26913,22.22192 8.98755,5.24074 c 4.94315,2.8824 9.1155,5.62457 9.27187,6.0937 0.24422,0.73264 -41.51622,17.24274 -43.53025,17.20981 -0.40105,-0.007 -3.42917,-1.51373 -6.72917,-3.34927 z m 95.19004,-13.9932 c -5.94547,-3.50104 -11.24655,-6.80212 -11.78017,-7.33574 33.7174,-29.96497 38.95603,-6.31649 -4.74753,-3.30987 -1.74274,0 -20.2098,-10.13464 -23.61181,-12.95806 -1.30286,-1.08128 -1.54808,-4.34216 -1.53522,-20.41438 0.008,-10.52016 0.34592,-19.62896 0.75,-20.24179 0.40408,-0.61283 5.31839,-2.80878 10.9207,-4.87989 l 10.18601,-3.76565 15.07869,8.73123 c 9.82089,5.68673 15.66191,8.50743 16.75126,8.08941 0.91991,-0.353 12.50079,-6.89623 25.73529,-14.54052 13.23451,-7.64428 24.86286,-14.20406 25.84079,-14.57728 1.68232,-0.64204 1.76884,0.96561 1.60709,29.86139 -0.094,16.79697 -0.44414,30.94363 -0.77804,31.43701 -0.82321,1.21638 -49.69464,29.34973 -51.87502,29.8624 -0.95265,0.22399 -6.59656,-2.45723 -12.54204,-5.95826 z M 326,220.46862 c 0,-26.96749 0.215,-31.61389 1.48538,-32.10138 0.85034,-0.32631 8.86654,3.70297 18.75,9.42454 L 363.5,207.78631 v 15.34338 15.34338 l -17,6.68034 c -9.35,3.67418 -17.7875,6.71774 -18.75,6.76346 -1.63142,0.0775 -1.75,-2.05336 -1.75,-31.44825 z M 386,221 c 0,-4.4 0.34113,-8 0.75807,-8 0.85242,0 18.02291,9.93903 17.24193,9.98038 -0.275,0.0146 -3.80913,1.37493 -7.85361,3.02305 C 392.1019,227.65154 388.1644,229 387.39639,229 386.31757,229 386,227.18062 386,221 Z"
       id="path8042"
       inkscape:connector-curvature="0"
       sodipodi:nodetypes="csssccscscssccccsscscsscsccscccscsscssscccccscscccscsssccss" />
  </g>
  <g
     transform="matrix(0.8,0,0,0.8,76.694707,311.46876)"
     style="font-style:normal;font-weight:normal;font-size:40px;line-height:1.25;font-family:sans-serif;letter-spacing:0px;word-spacing:0px;fill:#000000;fill-opacity:1;stroke:none"
     id="flowRoot8062" />
</svg>
