<?xml version="1.0" encoding="UTF-8" standalone="no"?>
<!-- Created with Inkscape (http://www.inkscape.org/) -->

<svg
   xmlns:dc="http://purl.org/dc/elements/1.1/"
   xmlns:cc="http://creativecommons.org/ns#"
   xmlns:rdf="http://www.w3.org/1999/02/22-rdf-syntax-ns#"
   xmlns:svg="http://www.w3.org/2000/svg"
   xmlns="http://www.w3.org/2000/svg"
   xmlns:sodipodi="http://sodipodi.sourceforge.net/DTD/sodipodi-0.dtd"
   xmlns:inkscape="http://www.inkscape.org/namespaces/inkscape"
   version="1.1"
   id="svg8028"
   width="967.95807"
   height="543.07294"
   viewBox="0 0 967.95804 543.07292"
   sodipodi:docname="logo-word-large.svg"
   inkscape:version="0.92.4 (0.92.4+202003022015+8da6682)"
   inkscape:export-filename="/home/actumn/repos/celery.node/assets/images/logo-word.png"
   inkscape:export-xdpi="114.97728"
   inkscape:export-ydpi="114.97728">
  <metadata
     id="metadata8034">
    <rdf:RDF>
      <cc:Work
         rdf:about="">
        <dc:format>image/svg+xml</dc:format>
        <dc:type
           rdf:resource="http://purl.org/dc/dcmitype/StillImage" />
        <dc:title></dc:title>
      </cc:Work>
    </rdf:RDF>
  </metadata>
  <defs
     id="defs8032" />
  <sodipodi:namedview
     pagecolor="#ffffff"
     bordercolor="#666666"
     borderopacity="1"
     objecttolerance="10"
     gridtolerance="10"
     guidetolerance="10"
     inkscape:pageopacity="0"
     inkscape:pageshadow="2"
     inkscape:window-width="1920"
     inkscape:window-height="960"
     id="namedview8030"
     showgrid="false"
     inkscape:zoom="1.1042489"
     inkscape:cx="558.43103"
     inkscape:cy="338.77351"
     inkscape:window-x="0"
     inkscape:window-y="27"
     inkscape:window-maximized="1"
     inkscape:current-layer="svg8028"
     fit-margin-right="150"
     fit-margin-left="150"
     fit-margin-top="210"
     fit-margin-bottom="210" />
  <g
     id="g8038"
     transform="matrix(0.46482328,-0.26330223,0.26330223,0.46482328,-49.894984,274.2675)">
    <path
       style="fill:#acc75e"
       d="m 427.5,368.58075 c -3.12918,-2.09869 -16.3605,-9.89541 -20.01894,-11.79641 -1.81596,-0.94361 -17.4046,-9.89378 -34.64141,-19.88926 C 355.60284,326.89959 338.35,316.97365 334.5,314.83743 c -11.59429,-6.43323 -10.51591,0.69458 -10.24037,-67.68632 0.13221,-32.80811 0.5877,-60.18654 1.01221,-60.84096 0.58912,-0.90816 1.566,-0.85803 4.1264,0.21178 4.86177,2.03137 34.97206,19.58556 35.81403,20.87945 0.39175,0.60201 0.72362,18.16735 0.7375,39.03409 0.0166,24.92879 0.3825,38.30389 1.06706,39.00202 1.23104,1.25545 14.812,9.37599 27.48317,16.43316 4.95,2.75689 15.525,8.80916 23.5,13.44949 l 14.5,8.43696 v 22.85791 c 0,24.53016 -0.15581,25.21466 -5,21.96574 z m -1,-69.69347 c -15.82114,-9.32609 -15.25475,-8.99919 -28.5,-16.44947 -6.325,-3.55773 -12.06339,-7.2239 -12.75198,-8.14705 -1.72333,-2.31035 -1.64669,-60.39698 0.0827,-62.65796 0.97533,-1.27515 49.71932,-29.90365 53.33118,-31.32267 0.63903,-0.25106 6.93903,2.89195 14,6.98447 7.06097,4.09252 16.21313,9.37872 20.33813,11.74711 4.125,2.3684 10.65,6.14512 14.5,8.39271 l 7,4.08653 0.26401,31.07186 c 0.24328,28.63225 0.12551,31.19278 -1.5,32.612 -0.9702,0.84708 -11.88901,7.38051 -24.26401,14.51874 -24.162,13.93728 -28.4554,16.28733 -29.70034,16.25691 C 438.85985,305.96972 433.1,302.77779 426.5,298.88728 Z M 357.17542,188.72414 c -6.77852,-3.97328 -13.52852,-7.85898 -15,-8.63491 C 336.84059,177.27615 332,173.95589 332,173.10972 c 0,-0.47586 5.7375,-4.16401 12.75,-8.19591 7.0125,-4.03189 30.9219,-17.81191 53.132,-30.62226 C 420.09209,121.4812 438.71696,111 439.27058,111 c 0.90239,0 20.20419,10.8546 33.22942,18.68697 2.75,1.65363 15.125,8.75779 27.5,15.78702 33.88909,19.24962 46,26.59362 46,27.89417 C 546,174.91211 509.79172,196 507.14073,196 c -1.12286,0 -4.65138,-1.60845 -7.84115,-3.57433 -20.22323,-12.46375 -58.81249,-33.56077 -60.72011,-33.19611 -1.18176,0.22591 -16.34021,8.59167 -33.68544,18.59059 -17.34523,9.99892 -32.40467,18.16821 -33.46541,18.15399 -1.06074,-0.0142 -7.47468,-3.27672 -14.2532,-7.25 z"
       id="path8048"
       inkscape:connector-curvature="0"
       sodipodi:nodetypes="ssssscccscsscsssscccscscscscsscscsscsssscscs" />
    <path
       style="fill:#c7e410"
       d="m 422.0095,363.43416 c -4.11978,-2.40745 -7.63085,-4.7982 -7.80238,-5.31279 C 413.95648,357.36945 428.50019,351 430.46774,351 c 0.29274,0 0.53226,3.825 0.53226,8.5 0,4.675 -0.3375,8.45755 -0.75,8.40567 -0.4125,-0.0519 -4.12073,-2.06406 -8.2405,-4.47151 z m -46.23001,-26.70845 c -17.44628,-10.02414 -31.73378,-18.68209 -31.75,-19.23988 -0.0162,-0.5578 9.72439,-4.73218 21.6458,-9.27641 l 21.67529,-8.26224 10.57471,5.93991 c 5.81609,3.26695 15.52471,8.8217 21.57471,12.34389 l 11,6.40398 0.28136,11.03405 c 0.20597,8.07717 -0.062,11.29206 -1,11.99689 -2.21397,1.66363 -17.80575,7.33525 -20.09531,7.30981 -1.20233,-0.0134 -16.46028,-8.22587 -33.90656,-18.25 z M 332.5,311.63881 l -6,-3.33734 -0.24419,-25.40074 c -0.1343,-13.9704 0.0907,-25.88524 0.5,-26.47743 C 327.45819,255.4071 361.2341,242 363.0918,242 c 0.47846,0 0.99105,9.99986 1.13907,22.22191 l 0.26913,22.22192 8.98755,5.24074 c 4.94315,2.8824 9.1155,5.62457 9.27187,6.0937 0.24422,0.73264 -41.51622,17.24274 -43.53025,17.20981 -0.40105,-0.007 -3.42917,-1.51373 -6.72917,-3.34927 z m 95.65272,-13.63309 c -6.241,-3.74015 -11.77443,-7.22743 -12.2965,-7.7495 -0.59897,-0.59897 3.38599,-2.61351 10.79956,-5.45956 6.46183,-2.48069 11.92025,-5.02476 12.12983,-5.6535 0.63839,-1.91517 -1.80343,-1.3302 -14.01251,3.35684 -6.44703,2.475 -12.56534,4.5 -13.59625,4.5 -1.75349,0 -20.20952,-10.12237 -23.62632,-12.95806 -1.30286,-1.08128 -1.54808,-4.34216 -1.53522,-20.41438 0.008,-10.52016 0.34592,-19.62896 0.75,-20.24179 0.40408,-0.61283 5.34719,-2.81946 10.98469,-4.90362 5.6375,-2.08417 10.25,-4.17026 10.25,-4.63577 0,-1.64031 -4.58025,-0.80682 -11.85361,2.15705 C 392.1019,227.65154 388.1644,229 387.39639,229 386.3267,229 386,227.26445 386,221.58179 c 0,-4.08002 0.26781,-8.11612 0.59513,-8.96911 0.61913,-1.61342 50.7311,-30.94601 52.86834,-30.94601 0.96818,0 20.83727,11.08192 27.53653,15.35841 0.825,0.52664 6.45,3.71285 12.5,7.08048 6.05,3.36762 11.7875,6.81628 12.75,7.66368 1.59434,1.40369 1.75,4.23875 1.75,31.8732 v 30.33247 l -3.75,2.36017 c -7.15982,4.50624 -49.57984,28.66438 -50.16329,28.56792 -0.32269,-0.0534 -5.69298,-3.15713 -11.93399,-6.89728 z M 326,220.46862 c 0,-26.96749 0.215,-31.61389 1.48538,-32.10138 0.85034,-0.32631 8.86654,3.70297 18.75,9.42454 L 363.5,207.78631 v 15.34338 15.34338 l -17,6.68034 c -9.35,3.67418 -17.7875,6.71774 -18.75,6.76346 -1.63142,0.0775 -1.75,-2.05336 -1.75,-31.44825 z m 32.7787,-31.88347 c -5.89672,-3.46094 -11.36388,-6.82591 -12.14925,-7.47772 -0.78537,-0.6518 -3.81587,-2.40512 -6.73444,-3.89626 -2.91856,-1.49114 -5.44414,-3.17688 -5.61238,-3.74608 C 334.02275,172.58589 437.65969,112 439.42351,112 c 0.34061,0 5.89716,3.09655 12.34789,6.88123 20.40659,11.97264 22.09906,12.95082 53.88207,31.14147 39.49729,22.60583 40.20302,23.05075 38.32327,24.16048 -0.8122,0.47951 -8.67674,5.14838 -17.47674,10.37529 -8.8,5.22691 -17.007,9.76194 -18.23779,10.07784 -1.54164,0.3957 -3.87478,-0.49654 -7.5,-2.86814 -2.89421,-1.89338 -6.03579,-3.72132 -6.98127,-4.06208 -0.94548,-0.34077 -12.42048,-6.80004 -25.5,-14.35395 -13.07952,-7.55391 -25.00474,-14.3495 -26.50049,-15.10131 -2.62684,-1.32033 -3.84684,-0.71718 -35.78392,17.69112 -18.1854,10.48193 -33.8366,19.03055 -34.78045,18.99694 -0.94384,-0.0336 -6.54067,-2.8928 -12.43738,-6.35374 z"
       id="path8046"
       inkscape:connector-curvature="0"
       sodipodi:nodetypes="csssccscscssccccsscscsscsccssscsssccscscsscssccscscsscscccscsscccssscscscssscs" />
    <path
       style="fill:#96bd2c"
       d="m 422.0095,363.43416 c -4.11978,-2.40745 -7.63085,-4.7982 -7.80238,-5.31279 C 413.95648,357.36945 428.50019,351 430.46774,351 c 0.29274,0 0.53226,3.825 0.53226,8.5 0,4.675 -0.3375,8.45755 -0.75,8.40567 -0.4125,-0.0519 -4.12073,-2.06406 -8.2405,-4.47151 z m -46.23001,-26.70845 c -17.44628,-10.02414 -31.73378,-18.68209 -31.75,-19.23988 -0.0162,-0.5578 9.72439,-4.73218 21.6458,-9.27641 l 21.67529,-8.26224 10.57471,5.93991 c 5.81609,3.26695 15.52471,8.8217 21.57471,12.34389 l 11,6.40398 0.28136,11.03405 c 0.20597,8.07717 -0.062,11.29206 -1,11.99689 -2.21397,1.66363 -17.80575,7.33525 -20.09531,7.30981 -1.20233,-0.0134 -16.46028,-8.22587 -33.90656,-18.25 z M 332.5,311.63881 l -6,-3.33734 -0.24419,-25.40074 c -0.1343,-13.9704 0.0907,-25.88524 0.5,-26.47743 C 327.45819,255.4071 361.2341,242 363.0918,242 c 0.47846,0 0.99105,9.99986 1.13907,22.22191 l 0.26913,22.22192 8.98755,5.24074 c 4.94315,2.8824 9.1155,5.62457 9.27187,6.0937 0.24422,0.73264 -41.51622,17.24274 -43.53025,17.20981 -0.40105,-0.007 -3.42917,-1.51373 -6.72917,-3.34927 z m 95.19004,-13.9932 c -5.94547,-3.50104 -11.24655,-6.80212 -11.78017,-7.33574 33.7174,-29.96497 38.95603,-6.31649 -4.74753,-3.30987 -1.74274,0 -20.2098,-10.13464 -23.61181,-12.95806 -1.30286,-1.08128 -1.54808,-4.34216 -1.53522,-20.41438 0.008,-10.52016 0.34592,-19.62896 0.75,-20.24179 0.40408,-0.61283 5.31839,-2.80878 10.9207,-4.87989 l 10.18601,-3.76565 15.07869,8.73123 c 9.82089,5.68673 15.66191,8.50743 16.75126,8.08941 0.91991,-0.353 12.50079,-6.89623 25.73529,-14.54052 13.23451,-7.64428 24.86286,-14.20406 25.84079,-14.57728 1.68232,-0.64204 1.76884,0.96561 1.60709,29.86139 -0.094,16.79697 -0.44414,30.94363 -0.77804,31.43701 -0.82321,1.21638 -49.69464,29.34973 -51.87502,29.8624 -0.95265,0.22399 -6.59656,-2.45723 -12.54204,-5.95826 z M 326,220.46862 c 0,-26.96749 0.215,-31.61389 1.48538,-32.10138 0.85034,-0.32631 8.86654,3.70297 18.75,9.42454 L 363.5,207.78631 v 15.34338 15.34338 l -17,6.68034 c -9.35,3.67418 -17.7875,6.71774 -18.75,6.76346 -1.63142,0.0775 -1.75,-2.05336 -1.75,-31.44825 z M 386,221 c 0,-4.4 0.34113,-8 0.75807,-8 0.85242,0 18.02291,9.93903 17.24193,9.98038 -0.275,0.0146 -3.80913,1.37493 -7.85361,3.02305 C 392.1019,227.65154 388.1644,229 387.39639,229 386.31757,229 386,227.18062 386,221 Z"
       id="path8042"
       inkscape:connector-curvature="0"
       sodipodi:nodetypes="csssccscscssccccsscscsscsccscccscsscssscccccscscccscsssccss" />
  </g>
  <g
     aria-label="CELERY.node"
     transform="matrix(2.5582871,0,0,2.9808852,-417.39694,-275.91531)"
     style="font-style:normal;font-weight:normal;font-size:40px;line-height:1.25;font-family:sans-serif;letter-spacing:0px;word-spacing:0px;fill:#000000;fill-opacity:1;stroke:none"
     id="flowRoot8054">
    <path
       d="m 286.6886,173.01591 v 3.59387 q -1.721,-1.6029 -3.67823,-2.39591 -1.94035,-0.79302 -4.1338,-0.79302 -4.31939,0 -6.61407,2.64901 -2.29468,2.63213 -2.29468,7.62643 0,4.97743 2.29468,7.62643 2.29468,2.63213 6.61407,2.63213 2.19345,0 4.1338,-0.79301 1.95723,-0.79301 3.67823,-2.39591 v 3.56012 q -1.7885,1.21483 -3.79634,1.82225 -1.99097,0.60741 -4.21816,0.60741 -5.71982,0 -9.00999,-3.49263 -3.29016,-3.50951 -3.29016,-9.56679 0,-6.07415 3.29016,-9.56679 3.29017,-3.5095 9.00999,-3.5095 2.26093,0 4.25191,0.60741 2.00784,0.59054 3.76259,1.7885 z"
       style="font-style:normal;font-variant:normal;font-weight:normal;font-stretch:normal;font-size:34.55516434px;font-family:sans-serif;-inkscape-font-specification:'sans-serif, Normal';font-variant-ligatures:normal;font-variant-caps:normal;font-variant-numeric:normal;font-feature-settings:normal;text-align:start;writing-mode:lr-tb;text-anchor:start"
       id="path3854"
       inkscape:connector-curvature="0" />
    <path
       d="m 291.98661,171.07556 h 15.92777 v 2.86835 h -12.51949 v 7.4577 h 11.99644 v 2.86835 h -11.99644 v 9.1281 h 12.8232 v 2.86835 h -16.23148 z"
       style="font-style:normal;font-variant:normal;font-weight:normal;font-stretch:normal;font-size:34.55516434px;font-family:sans-serif;-inkscape-font-specification:'sans-serif, Normal';font-variant-ligatures:normal;font-variant-caps:normal;font-variant-numeric:normal;font-feature-settings:normal;text-align:start;writing-mode:lr-tb;text-anchor:start"
       id="path3856"
       inkscape:connector-curvature="0" />
    <path
       d="m 313.85355,171.07556 h 3.40827 v 22.3225 h 12.26641 v 2.86835 h -15.67468 z"
       style="font-style:normal;font-variant:normal;font-weight:normal;font-stretch:normal;font-size:34.55516434px;font-family:sans-serif;-inkscape-font-specification:'sans-serif, Normal';font-variant-ligatures:normal;font-variant-caps:normal;font-variant-numeric:normal;font-feature-settings:normal;text-align:start;writing-mode:lr-tb;text-anchor:start"
       id="path3858"
       inkscape:connector-curvature="0" />
    <path
       d="m 333.08836,171.07556 h 15.92777 v 2.86835 h -12.5195 v 7.4577 h 11.99645 v 2.86835 h -11.99645 v 9.1281 h 12.82321 v 2.86835 h -16.23148 z"
       style="font-style:normal;font-variant:normal;font-weight:normal;font-stretch:normal;font-size:34.55516434px;font-family:sans-serif;-inkscape-font-specification:'sans-serif, Normal';font-variant-ligatures:normal;font-variant-caps:normal;font-variant-numeric:normal;font-feature-settings:normal;text-align:start;writing-mode:lr-tb;text-anchor:start"
       id="path3860"
       inkscape:connector-curvature="0" />
    <path
       d="m 366.90113,184.45556 q 1.09672,0.3712 2.12596,1.58603 1.0461,1.21483 2.0922,3.34078 l 3.45889,6.88404 h -3.66136 l -3.22267,-6.46222 q -1.24858,-2.5309 -2.42966,-3.35766 -1.16422,-0.82676 -3.18893,-0.82676 h -3.71198 v 10.64664 h -3.40828 v -25.19085 h 7.69393 q 4.31939,0 6.44535,1.80537 2.12595,1.80537 2.12595,5.44986 0,2.37904 -1.1136,3.9482 -1.09672,1.56915 -3.2058,2.17657 z m -8.53755,-10.57915 v 8.9425 h 4.28565 q 2.4634,0 3.71198,-1.13046 1.26545,-1.14734 1.26545,-3.35766 0,-2.21031 -1.26545,-3.32391 -1.24858,-1.13047 -3.71198,-1.13047 z"
       style="font-style:normal;font-variant:normal;font-weight:normal;font-stretch:normal;font-size:34.55516434px;font-family:sans-serif;-inkscape-font-specification:'sans-serif, Normal';font-variant-ligatures:normal;font-variant-caps:normal;font-variant-numeric:normal;font-feature-settings:normal;text-align:start;writing-mode:lr-tb;text-anchor:start"
       id="path3862"
       inkscape:connector-curvature="0" />
    <path
       d="m 373.29586,171.07556 h 3.66136 l 6.98527,10.3598 6.93466,-10.3598 h 3.66136 l -8.90875,13.1944 v 11.99645 h -3.42515 v -11.99645 z"
       style="font-style:normal;font-variant:normal;font-weight:normal;font-stretch:normal;font-size:34.55516434px;font-family:sans-serif;-inkscape-font-specification:'sans-serif, Normal';font-variant-ligatures:normal;font-variant-caps:normal;font-variant-numeric:normal;font-feature-settings:normal;text-align:start;writing-mode:lr-tb;text-anchor:start"
       id="path3864"
       inkscape:connector-curvature="0" />
    <path
       d="m 391.16398,191.98076 h 3.56013 v 4.28565 h -3.56013 z"
       style="font-style:normal;font-variant:normal;font-weight:normal;font-stretch:normal;font-size:34.55516434px;font-family:sans-serif;-inkscape-font-specification:'sans-serif, Normal';font-variant-ligatures:normal;font-variant-caps:normal;font-variant-numeric:normal;font-feature-settings:normal;text-align:start;writing-mode:lr-tb;text-anchor:start"
       id="path3866"
       inkscape:connector-curvature="0" />
    <path
       d="m 417.43468,184.8605 v 11.40591 h -3.10457 v -11.30467 q 0,-2.68275 -1.0461,-4.01569 -1.0461,-1.33294 -3.13831,-1.33294 -2.51402,0 -3.96507,1.6029 -1.45105,1.6029 -1.45105,4.37002 v 10.68038 h -3.12144 v -18.89736 h 3.12144 v 2.93584 q 1.1136,-1.70414 2.61526,-2.54777 1.51854,-0.84363 3.49264,-0.84363 3.25642,0 4.92681,2.02472 1.67039,2.00784 1.67039,5.92229 z"
       style="font-style:normal;font-variant:normal;font-weight:normal;font-stretch:normal;font-size:34.55516434px;font-family:sans-serif;-inkscape-font-specification:'sans-serif, Normal';font-variant-ligatures:normal;font-variant-caps:normal;font-variant-numeric:normal;font-feature-settings:normal;text-align:start;writing-mode:lr-tb;text-anchor:start"
       id="path3868"
       inkscape:connector-curvature="0" />
    <path
       d="m 430.98341,179.54562 q -2.49715,0 -3.9482,1.95723 -1.45104,1.94035 -1.45104,5.33175 0,3.3914 1.43417,5.34863 1.45105,1.94035 3.96507,1.94035 2.48028,0 3.93133,-1.95722 1.45104,-1.95723 1.45104,-5.33176 0,-3.35765 -1.45104,-5.31488 -1.45105,-1.9741 -3.93133,-1.9741 z m 0,-2.63213 q 4.04943,0 6.36099,2.63213 2.31155,2.63213 2.31155,7.28898 0,4.63998 -2.31155,7.28898 -2.31156,2.63213 -6.36099,2.63213 -4.06631,0 -6.37786,-2.63213 -2.29468,-2.649 -2.29468,-7.28898 0,-4.65685 2.29468,-7.28898 2.31155,-2.63213 6.37786,-2.63213 z"
       style="font-style:normal;font-variant:normal;font-weight:normal;font-stretch:normal;font-size:34.55516434px;font-family:sans-serif;-inkscape-font-specification:'sans-serif, Normal';font-variant-ligatures:normal;font-variant-caps:normal;font-variant-numeric:normal;font-feature-settings:normal;text-align:start;writing-mode:lr-tb;text-anchor:start"
       id="path3870"
       inkscape:connector-curvature="0" />
    <path
       d="m 457.22036,180.2374 v -10.22482 h 3.10457 v 26.25383 h -3.10457 v -2.83461 q -0.97861,1.68727 -2.48028,2.51403 -1.48479,0.80988 -3.57699,0.80988 -3.42515,0 -5.58485,-2.73336 -2.14282,-2.73337 -2.14282,-7.18775 0,-4.45438 2.14282,-7.18774 2.1597,-2.73337 5.58485,-2.73337 2.0922,0 3.57699,0.82676 1.50167,0.80989 2.48028,2.49715 z m -10.57914,6.5972 q 0,3.42515 1.40043,5.38237 1.4173,1.94036 3.8807,1.94036 2.46341,0 3.88071,-1.94036 1.4173,-1.95722 1.4173,-5.38237 0,-3.42514 -1.4173,-5.3655 -1.4173,-1.95722 -3.88071,-1.95722 -2.4634,0 -3.8807,1.95722 -1.40043,1.94036 -1.40043,5.3655 z"
       style="font-style:normal;font-variant:normal;font-weight:normal;font-stretch:normal;font-size:34.55516434px;font-family:sans-serif;-inkscape-font-specification:'sans-serif, Normal';font-variant-ligatures:normal;font-variant-caps:normal;font-variant-numeric:normal;font-feature-settings:normal;text-align:start;writing-mode:lr-tb;text-anchor:start"
       id="path3872"
       inkscape:connector-curvature="0" />
    <path
       d="m 482.88365,186.04159 v 1.51853 H 468.6094 q 0.20247,3.20581 1.92348,4.89307 1.73788,1.67039 4.82557,1.67039 1.7885,0 3.45889,-0.43869 1.68727,-0.43869 3.34079,-1.31606 v 2.93584 q -1.6704,0.70865 -3.42515,1.07984 -1.75475,0.3712 -3.56013,0.3712 -4.52186,0 -7.17087,-2.63213 -2.63213,-2.63213 -2.63213,-7.12025 0,-4.63998 2.49715,-7.35647 2.51402,-2.73337 6.76593,-2.73337 3.81321,0 6.02353,2.4634 2.22719,2.44654 2.22719,6.6647 z m -3.10457,-0.91113 q -0.0337,-2.54776 -1.43417,-4.0663 -1.38356,-1.51854 -3.67824,-1.51854 -2.59838,0 -4.16754,1.46792 -1.55228,1.46792 -1.7885,4.1338 z"
       style="font-style:normal;font-variant:normal;font-weight:normal;font-stretch:normal;font-size:34.55516434px;font-family:sans-serif;-inkscape-font-specification:'sans-serif, Normal';font-variant-ligatures:normal;font-variant-caps:normal;font-variant-numeric:normal;font-feature-settings:normal;text-align:start;writing-mode:lr-tb;text-anchor:start"
       id="path3874"
       inkscape:connector-curvature="0" />
  </g>
  <g
     transform="matrix(0.8,0,0,0.8,143.19995,109.92578)"
     style="font-style:normal;font-weight:normal;font-size:40px;line-height:1.25;font-family:sans-serif;letter-spacing:0px;word-spacing:0px;fill:#000000;fill-opacity:1;stroke:none"
     id="flowRoot8062" />
</svg>
